<svg width="349" height="74" viewBox="0 0 349 74" fill="none" xmlns="http://www.w3.org/2000/svg">
<g filter="url(#filter0_d_1_16)">
<path d="M5 13.624H10.136V15.448L13.208 13.624H23.336L27.512 19.768V39.736H22.376V20.632L20.84 18.328H11.192L10.136 19.528V39.736H5V13.624Z" fill="white"/>
<path d="M38.0532 13.528H51.9733L56.1973 19.816L47.8932 28.36H38.8693V32.44L40.5013 34.888H50.0533L52.6932 32.152L55.6693 35.848L51.9253 39.736H38.0052L33.9253 33.64V17.8L38.0532 13.528ZM38.8693 19.672V23.944H46.0213L50.0052 19.768L49.0452 18.424H40.1173L38.8693 19.672Z" fill="white"/>
<path d="M71.1545 6.136H82.2905L85.0745 10.168L81.7145 13.624L79.8425 10.888H73.2665L71.5385 12.664V19.432H79.8425V24.136H71.5385V39.736H66.4025V24.136H62.5625V19.432H66.4025V11.032L71.1545 6.136Z" fill="white"/>
<path d="M93.3118 12.712H100.944L105.072 18.856V35.08H113.808V39.736H91.3438V35.08H100.08V19.672L98.4958 17.368H93.3118V12.712ZM99.5518 7.048H105.6V1H99.5518V7.048Z" fill="white"/>
<path d="M5 13.124H4.5V13.624V39.736V40.236H5H10.136H10.636V39.736V19.7167L11.418 18.828H20.5724L21.876 20.7834V39.736V40.236H22.376H27.512H28.012V39.736V19.768V19.6142L27.9255 19.4869L23.7495 13.3429L23.6007 13.124H23.336H13.208H13.0707L12.9527 13.1941L10.636 14.5696V13.624V13.124H10.136H5ZM38.0532 13.028H37.8411L37.6937 13.1806L33.5657 17.4526L33.4253 17.5979V17.8V33.64V33.7919L33.5097 33.9181L37.5897 40.0141L37.7382 40.236H38.0052H51.9253H52.1379L52.2854 40.0828L56.0294 36.1948L56.335 35.8775L56.0587 35.5344L53.0827 31.8384L52.7271 31.3968L52.3334 31.8048L49.8409 34.388H40.7688L39.3693 32.2886V28.86H47.8932H48.1045L48.2518 28.7085L56.5558 20.1645L56.8384 19.8737L56.6123 19.5372L52.3883 13.2492L52.2397 13.028H51.9733H38.0532ZM71.1545 5.636H70.943L70.7957 5.78776L66.0437 10.6838L65.9025 10.8293V11.032V18.932H62.5625H62.0625V19.432V24.136V24.636H62.5625H65.9025V39.736V40.236H66.4025H71.5385H72.0385V39.736V24.636H79.8425H80.3425V24.136V19.432V18.932H79.8425H72.0385V12.8671L73.4776 11.388H79.5788L81.3018 13.9063L81.647 14.4107L82.073 13.9725L85.433 10.5165L85.7194 10.222L85.4859 9.8839L82.702 5.8519L82.5529 5.636H82.2905H71.1545ZM93.3118 12.212H92.8118V12.712V17.368V17.868H93.3118H98.2327L99.5798 19.8273V34.58H91.3438H90.8438V35.08V39.736V40.236H91.3438H113.808H114.308V39.736V35.08V34.58H113.808H105.572V18.856V18.7036L105.487 18.5772L101.359 12.4332L101.21 12.212H100.944H93.3118ZM99.0518 7.048V7.548H99.5518H105.6H106.1V7.048V1V0.5H105.6H99.5518H99.0518V1V7.048ZM45.8072 23.444H39.3693V19.8791L40.3244 18.924H48.7879L49.358 19.7221L45.8072 23.444Z" stroke="black"/>
</g>
<path d="M5 61.208H6.712V61.816L7.736 61.208H11.112L12.504 63.256V69.912H10.792V63.544L10.28 62.776H7.064L6.712 63.176V69.912H5V61.208Z" fill="white"/>
<path d="M16.0177 61.176H20.6578L22.0658 63.272L19.2978 66.12H16.2898V67.48L16.8337 68.296H20.0178L20.8977 67.384L21.8897 68.616L20.6418 69.912H16.0017L14.6418 67.88V62.6L16.0177 61.176ZM16.2898 63.224V64.648H18.6737L20.0017 63.256L19.6818 62.808H16.7058L16.2898 63.224Z" fill="white"/>
<path d="M29.9795 61.208H31.6915V63.272L30.1555 64.84L31.6915 67.096V69.912H29.9795V67.384L29.1475 66.168H27.6275L25.8835 67.976V69.912H24.1715V67.496L25.6595 65.944V65.912L24.1715 63.624V61.208H25.8835V63.336L26.7155 64.568H28.2035L29.9795 62.744V61.208Z" fill="white"/>
<path d="M35.3493 57.944H37.0612V61.192H39.6533V62.776H37.0612V67.56L37.5732 68.312H38.9972L40.0853 67.24L40.9813 68.552L39.7173 69.912H36.7253L35.3493 67.88V62.776H34.0693V61.192H35.3493V57.944Z" fill="white"/>
<path d="M50.063 65.896H44.175V64.328H50.063V65.896Z" fill="white"/>
<path d="M54.3927 61.176H59.0327L60.4408 63.272L57.6727 66.12H54.6647V67.48L55.2088 68.296H58.3927L59.2728 67.384L60.2648 68.616L59.0168 69.912H54.3768L53.0168 67.88V62.6L54.3927 61.176ZM54.6647 63.224V64.648H57.0488L58.3768 63.256L58.0568 62.808H55.0807L54.6647 63.224Z" fill="white"/>
<path d="M62.5625 61.208H64.2745V61.816L65.2985 61.208H68.6745L70.0665 63.256V69.912H68.3545V63.544L67.8425 62.776H64.6265L64.2745 63.176V69.912H62.5625V61.208Z" fill="white"/>
<path d="M73.7243 57.944H75.4362V61.192H78.0283V62.776H75.4362V67.56L75.9482 68.312H77.3723L78.4603 67.24L79.3562 68.552L78.0922 69.912H75.1003L73.7243 67.88V62.776H72.4443V61.192H73.7243V57.944Z" fill="white"/>
<path d="M83.174 61.176H87.814L89.222 63.272L86.454 66.12H83.446V67.48L83.99 68.296H87.174L88.054 67.384L89.046 68.616L87.798 69.912H83.158L81.798 67.88V62.6L83.174 61.176ZM83.446 63.224V64.648H85.83L87.158 63.256L86.838 62.808H83.862L83.446 63.224Z" fill="white"/>
<path d="M91.2158 61.208H92.1917L93.6158 62.056L94.4317 61.208H97.9518L98.9597 62.696L97.6478 63.592L97.1198 62.776H95.1198L94.5437 63.4V68.328H96.7998V69.912H91.2158V68.328H92.8317V63.544L92.3197 62.776H91.2158V61.208Z" fill="white"/>
<path d="M103.642 61.208H107.065L108.425 63.272V68.456L107.018 69.912H103.674L102.649 69.32V73.368H100.938V61.208H102.649V61.816L103.642 61.208ZM102.649 67.56L103.177 68.328H106.362L106.714 67.96V63.576L106.201 62.792H103.018L102.649 63.16V67.56Z" fill="white"/>
<path d="M110.403 61.208H111.379L112.803 62.056L113.619 61.208H117.139L118.147 62.696L116.835 63.592L116.307 62.776H114.307L113.731 63.4V68.328H115.987V69.912H110.403V68.328H112.019V63.544L111.507 62.776H110.403V61.208Z" fill="white"/>
<path d="M120.781 60.904H123.325L124.701 62.952V68.36H127.613V69.912H120.125V68.36H123.037V63.224L122.509 62.456H120.781V60.904ZM122.861 59.016H124.877V57H122.861V59.016Z" fill="white"/>
<path d="M131.255 61.128H135.847L136.855 62.6L135.751 63.736L135.031 62.68H131.975L131.623 62.984V63.88L132.119 64.616H135.879L137.079 66.392V68.568L135.863 69.912H130.647L129.847 68.68L130.951 67.56L131.463 68.328H135.143L135.351 68.072V66.712L134.999 66.2H131.239L129.911 64.2V62.44L131.255 61.128Z" fill="white"/>
<path d="M140.736 61.176H145.376L146.785 63.272L144.016 66.12H141.008V67.48L141.553 68.296H144.736L145.617 67.384L146.609 68.616L145.361 69.912H140.721L139.361 67.88V62.6L140.736 61.176ZM141.008 63.224V64.648H143.393L144.721 63.256L144.4 62.808H141.424L141.008 63.224Z" fill="white"/>
<path d="M161.364 58.712H165.076L166.004 60.056L164.884 61.208L164.26 60.296H162.068L161.492 60.888V63.144H164.26V64.712H161.492V69.912H159.78V64.712H158.5V63.144H159.78V60.344L161.364 58.712Z" fill="white"/>
<path d="M169.518 61.176H174.158L175.566 63.272L172.798 66.12H169.79V67.48L170.334 68.296H173.518L174.398 67.384L175.39 68.616L174.142 69.912H169.502L168.142 67.88V62.6L169.518 61.176ZM169.79 63.224V64.648H172.174L173.502 63.256L173.182 62.808H170.206L169.79 63.224Z" fill="white"/>
<path d="M178.919 61.064H184.152L185.24 62.664V69.912H183.495V69.288L182.471 69.912H179.031L177.624 67.816V67.032L180.167 64.376H183.495V62.648H178.919V61.064ZM179.4 67.528L179.816 68.296H183.464V66.008H180.824L179.4 67.464V67.528Z" fill="white"/>
<path d="M188.849 57.944H190.561V61.192H193.153V62.776H190.561V67.56L191.073 68.312H192.497L193.585 67.24L194.481 68.552L193.217 69.912H190.225L188.849 67.88V62.776H187.569V61.192H188.849V57.944Z" fill="white"/>
<path d="M202.651 61.208H204.363V69.912H202.683V69.304L201.643 69.912H198.267L196.875 67.848V61.208H198.587V67.56L199.099 68.312H202.299L202.651 67.944V61.208Z" fill="white"/>
<path d="M206.341 61.208H207.317L208.741 62.056L209.557 61.208H213.077L214.085 62.696L212.773 63.592L212.245 62.776H210.245L209.669 63.4V68.328H211.925V69.912H206.341V68.328H207.957V63.544L207.445 62.776H206.341V61.208Z" fill="white"/>
<path d="M217.486 61.176H222.126L223.535 63.272L220.766 66.12H217.758V67.48L218.303 68.296H221.486L222.367 67.384L223.359 68.616L222.111 69.912H217.471L216.111 67.88V62.6L217.486 61.176ZM217.758 63.224V64.648H220.143L221.471 63.256L221.15 62.808H218.174L217.758 63.224Z" fill="white"/>
<path d="M235.906 60.904H238.45L239.826 62.952V68.36H242.738V69.912H235.25V68.36H238.162V63.224L237.634 62.456H235.906V60.904ZM237.986 59.016H240.002V57H237.986V59.016Z" fill="white"/>
<path d="M244.844 61.208H246.556V61.816L247.58 61.208H250.956L252.348 63.256V69.912H250.636V63.544L250.124 62.776H246.908L246.556 63.176V69.912H244.844V61.208Z" fill="white"/>
<path d="M256.005 57.944H257.717V61.192H260.309V62.776H257.717V67.56L258.23 68.312H259.654L260.742 67.24L261.638 68.552L260.374 69.912H257.382L256.005 67.88V62.776H254.725V61.192H256.005V57.944Z" fill="white"/>
<path d="M265.455 61.176H270.095L271.503 63.272L268.735 66.12H265.727V67.48L266.271 68.296H269.455L270.335 67.384L271.327 68.616L270.079 69.912H265.439L264.079 67.88V62.6L265.455 61.176ZM265.727 63.224V64.648H268.111L269.439 63.256L269.119 62.808H266.143L265.727 63.224Z" fill="white"/>
<path d="M276.393 69.336L275.657 70.008V71L276.137 71.72H278.185L279.369 70.552V69.56L279.209 69.336H276.393ZM275.545 63.32V65.176H278.249L279.369 64.472V63.432L278.857 62.696H276.121L275.545 63.32ZM278.377 66.776H276.073L275.625 67.256L275.897 67.72H280.073L281.145 69.384V71.144L278.857 73.32H275.321L273.881 71.384V69.624L274.729 68.776L273.577 67.048L274.409 66.248L273.833 65.896V62.792L275.465 61.096H278.377L279.369 61.704V61.096H281.097V65.112L278.377 66.776Z" fill="white"/>
<path d="M283.091 61.208H284.067L285.491 62.056L286.307 61.208H289.827L290.835 62.696L289.523 63.592L288.995 62.776H286.995L286.419 63.4V68.328H288.675V69.912H283.091V68.328H284.707V63.544L284.195 62.776H283.091V61.208Z" fill="white"/>
<path d="M294.044 61.064H299.276L300.365 62.664V69.912H298.621V69.288L297.596 69.912H294.156L292.749 67.816V67.032L295.293 64.376H298.621V62.648H294.044V61.064ZM294.525 67.528L294.94 68.296H298.589V66.008H295.948L294.525 67.464V67.528Z" fill="white"/>
<path d="M303.974 57.944H305.686V61.192H308.278V62.776H305.686V67.56L306.198 68.312H307.622L308.71 67.24L309.606 68.552L308.342 69.912H305.35L303.974 67.88V62.776H302.694V61.192H303.974V57.944Z" fill="white"/>
<path d="M312.656 60.904H315.2L316.576 62.952V68.36H319.488V69.912H312V68.36H314.912V63.224L314.384 62.456H312.656V60.904ZM314.736 59.016H316.752V57H314.736V59.016Z" fill="white"/>
<path d="M323.018 61.208H327.738L329.114 63.272V68.456L327.706 69.912H323.002L321.61 67.848V62.664L323.018 61.208ZM323.306 67.56L323.834 68.328H327.034L327.386 67.944V63.544L326.874 62.776H323.674L323.306 63.176V67.56Z" fill="white"/>
<path d="M331.188 61.208H332.9V61.816L333.923 61.208H337.299L338.691 63.256V69.912H336.979V63.544L336.467 62.776H333.251L332.9 63.176V69.912H331.188V61.208Z" fill="white"/>
<path d="M342.317 61.128H346.909L347.917 62.6L346.813 63.736L346.093 62.68H343.037L342.685 62.984V63.88L343.181 64.616H346.941L348.141 66.392V68.568L346.925 69.912H341.709L340.909 68.68L342.013 67.56L342.525 68.328H346.205L346.413 68.072V66.712L346.061 66.2H342.301L340.973 64.2V62.44L342.317 61.128Z" fill="white"/>
<defs>
<filter id="filter0_d_1_16" x="0" y="0" width="118.808" height="48.736" filterUnits="userSpaceOnUse" color-interpolation-filters="sRGB">
<feFlood flood-opacity="0" result="BackgroundImageFix"/>
<feColorMatrix in="SourceAlpha" type="matrix" values="0 0 0 0 0 0 0 0 0 0 0 0 0 0 0 0 0 0 127 0" result="hardAlpha"/>
<feOffset dy="4"/>
<feGaussianBlur stdDeviation="2"/>
<feComposite in2="hardAlpha" operator="out"/>
<feColorMatrix type="matrix" values="0 0 0 0 0 0 0 0 0 0 0 0 0 0 0 0 0 0 0.25 0"/>
<feBlend mode="normal" in2="BackgroundImageFix" result="effect1_dropShadow_1_16"/>
<feBlend mode="normal" in="SourceGraphic" in2="effect1_dropShadow_1_16" result="shape"/>
</filter>
</defs>
</svg>
